<svg width="173" height="54" fill="none" xmlns="http://www.w3.org/2000/svg"><g filter="url(#a)"><rect width="166" height="44" rx="10" fill="#FAFF0A"/></g><path d="m16.25 32 1.2-4.225V24.6l1.85-.75 3.25-9.525h6.475l4.025 11.2 1.925 3.55V32H30.55l-1.25-4h-7.275l-1.075 4h-4.7Zm7.425-7.85h4.25l-1.9-5.725H25.5l-1.825 5.725ZM37.714 32V18.3l-.5-2.5.5-1.5h8.5c1.883 0 3.392.35 4.525 1.05 1.133.7 1.7 1.833 1.7 3.4 0 .783-.133 1.492-.4 2.125s-.65 1.125-1.15 1.475c1.133.367 1.966.925 2.5 1.675.533.75.8 1.642.8 2.675 0 1.817-.533 3.158-1.6 4.025-1.05.85-2.592 1.275-4.625 1.275h-10.25Zm4.5-10.825h3.95c.566 0 .975-.133 1.225-.4.25-.267.375-.617.375-1.05 0-.55-.184-.925-.55-1.125-.367-.2-.8-.3-1.3-.3h-3.7v2.875Zm0 6.825h5c.6 0 1.041-.075 1.325-.225.3-.15.492-.342.575-.575.1-.233.15-.475.15-.725 0-.433-.159-.8-.475-1.1-.3-.317-.742-.475-1.325-.475h-5.25V28Zm22.689 4.25a13.04 13.04 0 0 1-3.125-.375 7.2 7.2 0 0 1-2.725-1.4c-.8-.667-1.442-1.592-1.925-2.775-.467-1.183-.7-2.7-.7-4.55 0-1.85.233-3.367.7-4.55.483-1.183 1.125-2.108 1.925-2.775a6.916 6.916 0 0 1 2.725-1.375c1.016-.267 2.058-.4 3.125-.4 1.066 0 2.1.133 3.1.4a6.964 6.964 0 0 1 2.725 1.4c.816.667 1.458 1.592 1.925 2.775.483 1.183.725 2.692.725 4.525 0 1.833-.242 3.342-.725 4.525-.467 1.183-1.109 2.108-1.925 2.775a6.964 6.964 0 0 1-2.725 1.4c-1 .267-2.034.4-3.1.4Zm0-4.25c1.233 0 2.166-.367 2.8-1.1.633-.733.95-1.983.95-3.75s-.317-3.017-.95-3.75c-.634-.733-1.567-1.1-2.8-1.1-1.217 0-2.142.375-2.775 1.125-.634.75-.95 1.992-.95 3.725s.316 2.975.95 3.725c.633.75 1.558 1.125 2.775 1.125Zm19.024 4.25c-2.567 0-4.5-.583-5.8-1.75-1.283-1.183-1.925-3.075-1.925-5.675v-6.5l.025-2.525-.025-1.5h4.55v10.025c0 1.167.234 2.117.7 2.85.467.717 1.292 1.075 2.475 1.075s2.017-.333 2.5-1c.5-.683.75-1.658.75-2.925V14.3h4.475v10.525c0 2.55-.633 4.425-1.9 5.625-1.25 1.2-3.191 1.8-5.825 1.8ZM99.16 32V18.3l-5 .25V14.3h14.625v4.25l-5.125-.25V28l.275 2.5-.275 1.5h-4.5Zm26.356.25c-2.567 0-4.5-.583-5.8-1.75-1.283-1.183-1.925-3.075-1.925-5.675v-6.5l.025-2.525-.025-1.5h4.55v10.025c0 1.167.233 2.117.7 2.85.467.717 1.292 1.075 2.475 1.075s2.017-.333 2.5-1c.5-.683.75-1.658.75-2.925V14.3h4.475v10.525c0 2.55-.633 4.425-1.9 5.625-1.25 1.2-3.192 1.8-5.825 1.8Zm17.482 0c-.917 0-1.783-.083-2.6-.25-.817-.183-1.525-.4-2.125-.65-.6-.25-1.042-.483-1.325-.7v-4.475c.8.45 1.808.875 3.025 1.275 1.217.383 2.567.575 4.05.575.6 0 1.042-.075 1.325-.225.3-.167.45-.45.45-.85 0-.433-.333-.792-1-1.075-.65-.3-1.683-.667-3.1-1.1-1.1-.35-2.042-.733-2.825-1.15-.767-.433-1.358-.967-1.775-1.6-.4-.65-.6-1.475-.6-2.475 0-1.033.267-1.967.8-2.8.533-.833 1.367-1.492 2.5-1.975 1.133-.483 2.583-.725 4.35-.725.533 0 1.1.025 1.7.075.617.033 1.108.083 1.475.15l2.825 2.075-.975 3.05-5.925-1.625c-.683 0-1.192.142-1.525.425-.317.283-.475.625-.475 1.025 0 .483.275.867.825 1.15.55.283 1.342.567 2.375.85 1.633.45 2.9.95 3.8 1.5.9.55 1.533 1.175 1.9 1.875.367.683.55 1.458.55 2.325 0 1.6-.642 2.892-1.925 3.875-1.283.967-3.208 1.45-5.775 1.45Z" fill="#000"/><rect x="6.75" y="5.75" width="151.5" height="33.5" rx="5.25" stroke="#000" stroke-width="1.5" stroke-dasharray="6 6"/><defs><filter id="a" x="0" y="0" width="173" height="54" filterUnits="userSpaceOnUse" color-interpolation-filters="sRGB"><feFlood flood-opacity="0" result="BackgroundImageFix"/><feColorMatrix in="SourceAlpha" values="0 0 0 0 0 0 0 0 0 0 0 0 0 0 0 0 0 0 127 0" result="hardAlpha"/><feOffset dx="7" dy="10"/><feComposite in2="hardAlpha" operator="out"/><feColorMatrix values="0 0 0 0 0 0 0 0 0 0 0 0 0 0 0 0 0 0 1 0"/><feBlend in2="BackgroundImageFix" result="effect1_dropShadow_249_1665"/><feBlend in="SourceGraphic" in2="effect1_dropShadow_249_1665" result="shape"/></filter></defs></svg>