<svg width="160" height="54" fill="none" xmlns="http://www.w3.org/2000/svg"><g filter="url(#a)"><rect width="152.221" height="43.91" rx="10" fill="#FAFF0A"/></g><path d="m20.25 31 1.2-4.225V23.6l1.85-.75 3.25-9.525h6.475l4.025 11.2 1.925 3.55V31H34.55l-1.25-4h-7.275l-1.075 4h-4.7Zm7.425-7.85h4.25l-1.9-5.725H29.5l-1.825 5.725ZM41.714 31V17.325l-.5-2.525.5-1.5h8c1.217 0 2.308.192 3.275.575.983.367 1.758 1 2.325 1.9.583.883.875 2.108.875 3.675 0 1.417-.258 2.567-.775 3.45a4.873 4.873 0 0 1-2.15 1.95l.25.275 2.475 3.1 1.425 1.275V31h-5.625l-3.5-5.325h-2.075v1.3l.25 2.5-.25 1.525h-4.5Zm4.5-9.25h2.45c.867 0 1.558-.158 2.075-.475.517-.333.775-.942.775-1.825 0-.617-.125-1.075-.375-1.375-.25-.317-.6-.525-1.05-.625-.433-.1-.942-.15-1.525-.15h-2.6l.25 4.45ZM63.658 31V17.3l-5 .25V13.3h14.625v4.25l-5.125-.25V27l.275 2.5-.275 1.5h-4.5Zm12.375 0V17.3l-.25-2.5.25-1.5h4.525V31h-4.525Zm14.264.25c-.917 0-1.784-.083-2.6-.25-.817-.183-1.525-.4-2.125-.65-.6-.25-1.042-.483-1.325-.7v-4.475c.8.45 1.808.875 3.025 1.275 1.216.383 2.566.575 4.05.575.6 0 1.041-.075 1.325-.225.3-.167.45-.45.45-.85 0-.433-.334-.792-1-1.075-.65-.3-1.683-.667-3.1-1.1-1.1-.35-2.042-.733-2.825-1.15-.767-.433-1.358-.967-1.775-1.6-.4-.65-.6-1.475-.6-2.475 0-1.033.267-1.967.8-2.8.533-.833 1.367-1.492 2.5-1.975 1.133-.483 2.583-.725 4.35-.725.533 0 1.1.025 1.7.075.616.033 1.108.083 1.475.15l2.825 2.075-.975 3.05-5.925-1.625c-.683 0-1.192.142-1.525.425-.317.283-.475.625-.475 1.025 0 .483.275.867.825 1.15.55.283 1.341.567 2.375.85 1.633.45 2.9.95 3.8 1.5.9.55 1.533 1.175 1.9 1.875.367.683.55 1.458.55 2.325 0 1.6-.642 2.892-1.925 3.875-1.284.967-3.209 1.45-5.775 1.45Zm14.705-.25V17.3l-5 .25V13.3h14.625v4.25l-5.125-.25V27l.275 2.5-.275 1.5h-4.5Zm18.375.25c-.917 0-1.783-.083-2.6-.25-.817-.183-1.525-.4-2.125-.65-.6-.25-1.042-.483-1.325-.7v-4.475c.8.45 1.808.875 3.025 1.275 1.217.383 2.567.575 4.05.575.6 0 1.042-.075 1.325-.225.3-.167.45-.45.45-.85 0-.433-.333-.792-1-1.075-.65-.3-1.683-.667-3.1-1.1-1.1-.35-2.042-.733-2.825-1.15-.767-.433-1.358-.967-1.775-1.6-.4-.65-.6-1.475-.6-2.475 0-1.033.267-1.967.8-2.8.533-.833 1.367-1.492 2.5-1.975 1.133-.483 2.583-.725 4.35-.725.533 0 1.1.025 1.7.075.617.033 1.108.083 1.475.15l2.825 2.075-.975 3.05-5.925-1.625c-.683 0-1.192.142-1.525.425-.317.283-.475.625-.475 1.025 0 .483.275.867.825 1.15.55.283 1.342.567 2.375.85 1.633.45 2.9.95 3.8 1.5.9.55 1.533 1.175 1.9 1.875.367.683.55 1.458.55 2.325 0 1.6-.642 2.892-1.925 3.875-1.283.967-3.208 1.45-5.775 1.45Z" fill="#000"/><rect x="7.252" y="5.423" width="137.53" height="33.5" rx="5.25" stroke="#000" stroke-width="1.5" stroke-dasharray="6 6"/><defs><filter id="a" x="0" y="0" width="159.221" height="53.91" filterUnits="userSpaceOnUse" color-interpolation-filters="sRGB"><feFlood flood-opacity="0" result="BackgroundImageFix"/><feColorMatrix in="SourceAlpha" values="0 0 0 0 0 0 0 0 0 0 0 0 0 0 0 0 0 0 127 0" result="hardAlpha"/><feOffset dx="7" dy="10"/><feComposite in2="hardAlpha" operator="out"/><feColorMatrix values="0 0 0 0 0 0 0 0 0 0 0 0 0 0 0 0 0 0 1 0"/><feBlend in2="BackgroundImageFix" result="effect1_dropShadow_249_1661"/><feBlend in="SourceGraphic" in2="effect1_dropShadow_249_1661" result="shape"/></filter></defs></svg>