<svg width="236" height="49" fill="none" xmlns="http://www.w3.org/2000/svg"><g filter="url(#a)"><mask id="b" maskUnits="userSpaceOnUse" x="-5" y="-5" width="238" height="51" fill="#000"><path fill="#fff" d="M-5-5h238v51H-5z"/><path d="m1.632 40-1.1-3.3 1.1-5.5V1.06h27.225l2.75 1.65-3.63 7.7-4.95-.55H11.532v6.05h14.795v8.525h-6.49l-8.305-.55V31.2h16.445l6.545 5.28L31.277 40H1.632Zm47.216 0-9.9-30.195-1.65-5.445v-3.3h10.45l7.755 28.93h1.1l7.645-28.93h10.34v3.3l-1.65 5.445L63.093 40H48.848Zm32.328 0-1.1-3.3 1.1-5.5V1.06H108.4l2.75 1.65-3.63 7.7-4.95-.55H91.076v6.05h14.795v8.525h-6.49l-8.305-.55V31.2h16.445l6.545 5.28-3.245 3.52H81.176Zm38.966 0V9.915l-1.1-5.5 1.1-3.3h8.855l11.11 14.96 2.64 4.565h.55V1.115h10.395v3.3l-.55 5.5V40h-8.635l-13.805-19.36h-.55v3.3l.55 16.06h-10.56Zm50.05 0V9.86l-11 .55V1.06h32.175v9.35l-11.275-.55V31.2l.605 5.5-.605 3.3h-9.9Zm40.425.55c-2.017 0-3.923-.183-5.72-.55-1.797-.403-3.355-.88-4.675-1.43-1.32-.55-2.292-1.063-2.915-1.54v-9.845c1.76.99 3.978 1.925 6.655 2.805 2.677.843 5.647 1.265 8.91 1.265 1.32 0 2.292-.165 2.915-.495.66-.367.99-.99.99-1.87 0-.953-.733-1.742-2.2-2.365-1.43-.66-3.703-1.467-6.82-2.42-2.42-.77-4.492-1.613-6.215-2.53-1.687-.953-2.988-2.127-3.905-3.52-.88-1.43-1.32-3.245-1.32-5.445 0-2.273.587-4.327 1.76-6.16 1.173-1.833 3.007-3.282 5.5-4.345C206.07 1.042 209.26.51 213.147.51c1.173 0 2.42.055 3.74.165 1.357.073 2.438.183 3.245.33l6.215 4.565-2.145 6.71-13.035-3.575c-1.503 0-2.622.312-3.355.935-.697.623-1.045 1.375-1.045 2.255 0 1.063.605 1.907 1.815 2.53 1.21.623 2.952 1.247 5.225 1.87 3.593.99 6.38 2.09 8.36 3.3 1.98 1.21 3.373 2.585 4.18 4.125.807 1.503 1.21 3.208 1.21 5.115 0 3.52-1.412 6.362-4.235 8.525-2.823 2.127-7.058 3.19-12.705 3.19Z"/></mask><path d="m1.632 40-1.1-3.3 1.1-5.5V1.06h27.225l2.75 1.65-3.63 7.7-4.95-.55H11.532v6.05h14.795v8.525h-6.49l-8.305-.55V31.2h16.445l6.545 5.28L31.277 40H1.632Zm47.216 0-9.9-30.195-1.65-5.445v-3.3h10.45l7.755 28.93h1.1l7.645-28.93h10.34v3.3l-1.65 5.445L63.093 40H48.848Zm32.328 0-1.1-3.3 1.1-5.5V1.06H108.4l2.75 1.65-3.63 7.7-4.95-.55H91.076v6.05h14.795v8.525h-6.49l-8.305-.55V31.2h16.445l6.545 5.28-3.245 3.52H81.176Zm38.966 0V9.915l-1.1-5.5 1.1-3.3h8.855l11.11 14.96 2.64 4.565h.55V1.115h10.395v3.3l-.55 5.5V40h-8.635l-13.805-19.36h-.55v3.3l.55 16.06h-10.56Zm50.05 0V9.86l-11 .55V1.06h32.175v9.35l-11.275-.55V31.2l.605 5.5-.605 3.3h-9.9Zm40.425.55c-2.017 0-3.923-.183-5.72-.55-1.797-.403-3.355-.88-4.675-1.43-1.32-.55-2.292-1.063-2.915-1.54v-9.845c1.76.99 3.978 1.925 6.655 2.805 2.677.843 5.647 1.265 8.91 1.265 1.32 0 2.292-.165 2.915-.495.66-.367.99-.99.99-1.87 0-.953-.733-1.742-2.2-2.365-1.43-.66-3.703-1.467-6.82-2.42-2.42-.77-4.492-1.613-6.215-2.53-1.687-.953-2.988-2.127-3.905-3.52-.88-1.43-1.32-3.245-1.32-5.445 0-2.273.587-4.327 1.76-6.16 1.173-1.833 3.007-3.282 5.5-4.345C206.07 1.042 209.26.51 213.147.51c1.173 0 2.42.055 3.74.165 1.357.073 2.438.183 3.245.33l6.215 4.565-2.145 6.71-13.035-3.575c-1.503 0-2.622.312-3.355.935-.697.623-1.045 1.375-1.045 2.255 0 1.063.605 1.907 1.815 2.53 1.21.623 2.952 1.247 5.225 1.87 3.593.99 6.38 2.09 8.36 3.3 1.98 1.21 3.373 2.585 4.18 4.125.807 1.503 1.21 3.208 1.21 5.115 0 3.52-1.412 6.362-4.235 8.525-2.823 2.127-7.058 3.19-12.705 3.19Z" fill="#fff"/><path d="m1.632 40-4.506 1.502 1.082 3.248h3.424V40Zm-1.1-3.3-4.658-.932-.247 1.237.399 1.197L.532 36.7Zm1.1-5.5 4.658.932.092-.462v-.47h-4.75Zm0-30.14v-4.75h-4.75v4.75h4.75Zm27.225 0L31.3-3.013l-1.128-.677h-1.316v4.75Zm2.75 1.65 4.296 2.025L37.736.848l-3.685-2.211-2.444 4.073Zm-3.63 7.7-.525 4.72 3.374.376 1.447-3.07-4.296-2.026Zm-4.95-.55.524-4.72-.261-.03h-.263v4.75Zm-11.495 0V5.11h-4.75v4.75h4.75Zm0 6.05h-4.75v4.75h4.75v-4.75Zm14.795 0h4.75v-4.75h-4.75v4.75Zm0 8.525v4.75h4.75v-4.75h-4.75Zm-6.49 0-.314 4.74.157.01h.157v-4.75Zm-8.305-.55.314-4.74-5.064-.335v5.075h4.75Zm0 7.315h-4.75v4.75h4.75V31.2Zm16.445 0 2.982-3.697-1.305-1.053h-1.677v4.75Zm6.545 5.28 3.492 3.22 3.44-3.731-3.95-3.186-2.982 3.697ZM31.277 40v4.75h2.081l1.411-1.53L31.277 40ZM6.138 38.498l-1.1-3.3-9.012 3.004 1.1 3.3 9.012-3.004Zm-.948-.866 1.1-5.5-9.316-1.864-1.1 5.5 9.316 1.864ZM6.382 31.2V1.06h-9.5V31.2h9.5ZM1.632 5.81h27.225v-9.5H1.632v9.5Zm24.781-.677 2.75 1.65 4.888-8.146-2.75-1.65-4.888 8.146ZM27.31.685l-3.63 7.7 8.593 4.05 3.63-7.7L27.31.685Zm1.192 5.004-4.95-.55-1.05 9.442 4.95.55 1.05-9.442Zm-5.475-.579H11.532v9.5h11.495v-9.5ZM6.782 9.86v6.05h9.5V9.86h-9.5Zm4.75 10.8h14.795v-9.5H11.532v9.5Zm10.045-4.75v8.525h9.5V15.91h-9.5Zm4.75 3.775h-6.49v9.5h6.49v-9.5Zm-6.176.01-8.305-.55-.628 9.48 8.305.55.628-9.48Zm-13.37 4.19V31.2h9.5v-7.315h-9.5Zm4.75 12.065h16.446v-9.5H11.532v9.5Zm13.463-1.053 6.546 5.28 5.964-7.394-6.545-5.28-5.965 7.394Zm6.035-1.637-3.244 3.52 6.984 6.44 3.245-3.52-6.985-6.44Zm.248 1.99H1.632v9.5h29.645v-9.5ZM48.848 40l-4.513 1.48 1.072 3.27h3.441V40Zm-9.9-30.195-4.546 1.377.016.052.017.05 4.513-1.479Zm-1.65-5.445h-4.75v.704l.204.674 4.546-1.378Zm0-3.3v-4.75h-4.75v4.75h4.75Zm10.45 0 4.588-1.23-.943-3.52h-3.645v4.75Zm7.755 28.93-4.588 1.23.944 3.52h3.644v-4.75Zm1.1 0v4.75h3.658l.934-3.536-4.592-1.214Zm7.645-28.93v-4.75H60.59l-.934 3.536 4.592 1.214Zm10.34 0h4.75v-4.75h-4.75v4.75Zm0 3.3 4.546 1.378.204-.674V4.36h-4.75Zm-1.65 5.445 4.516 1.472.016-.047.014-.048-4.546-1.377ZM63.093 40v4.75h3.447l1.07-3.278L63.092 40Zm-9.731-1.48-9.9-30.195-9.027 2.96 9.9 30.195 9.027-2.96ZM43.494 8.427l-1.65-5.445-9.092 2.756 1.65 5.444 9.092-2.755ZM42.048 4.36v-3.3h-9.5v3.3h9.5Zm-4.75 1.45h10.45v-9.5h-10.45v9.5Zm5.862-3.52 7.755 28.93 9.176-2.46L52.336-.17 43.16 2.29Zm12.343 32.45h1.1v-9.5h-1.1v9.5Zm5.693-3.536 7.645-28.93-9.185-2.428-7.645 28.93 9.184 2.428ZM64.248 5.81h10.34v-9.5h-10.34v9.5Zm5.59-4.75v3.3h9.5v-3.3h-9.5Zm.204 1.922-1.65 5.445 9.092 2.755 1.65-5.444-9.092-2.756Zm-1.62 5.35-9.845 30.196 9.032 2.944 9.845-30.195-9.032-2.944ZM63.093 35.25H48.848v9.5h14.245v-9.5ZM81.176 40l-4.507 1.502 1.083 3.248h3.424V40Zm-1.1-3.3-4.658-.932-.247 1.237.398 1.197 4.507-1.502Zm1.1-5.5 4.657.932.093-.462v-.47h-4.75Zm0-30.14v-4.75h-4.75v4.75h4.75Zm27.225 0 2.444-4.073-1.129-.677h-1.315v4.75Zm2.75 1.65 4.296 2.025L117.28.848l-3.685-2.211-2.444 4.073Zm-3.63 7.7-.525 4.72 3.374.376 1.447-3.07-4.296-2.026Zm-4.95-.55.524-4.72-.261-.03h-.263v4.75Zm-11.495 0V5.11h-4.75v4.75h4.75Zm0 6.05h-4.75v4.75h4.75v-4.75Zm14.795 0h4.75v-4.75h-4.75v4.75Zm0 8.525v4.75h4.75v-4.75h-4.75Zm-6.49 0-.314 4.74.157.01h.157v-4.75Zm-8.305-.55.314-4.74-5.064-.335v5.075h4.75Zm0 7.315h-4.75v4.75h4.75V31.2Zm16.445 0 2.982-3.697-1.305-1.053h-1.677v4.75Zm6.545 5.28 3.492 3.22 3.439-3.731-3.949-3.186-2.982 3.697ZM110.821 40v4.75h2.081l1.411-1.53-3.492-3.22Zm-25.14-1.502-1.1-3.3-9.011 3.004 1.1 3.3 9.012-3.004Zm-.947-.866 1.1-5.5-9.316-1.864-1.1 5.5 9.316 1.864Zm1.192-6.432V1.06h-9.5V31.2h9.5Zm-4.75-25.39H108.4v-9.5H81.176v9.5Zm24.781-.677 2.75 1.65 4.888-8.146-2.75-1.65-4.888 8.146Zm.897-4.448-3.63 7.7 8.593 4.05 3.63-7.7-8.593-4.05Zm1.191 5.004-4.95-.55-1.049 9.442 4.95.55 1.049-9.442Zm-5.474-.579H91.076v9.5h11.495v-9.5ZM86.326 9.86v6.05h9.5V9.86h-9.5Zm4.75 10.8h14.795v-9.5H91.076v9.5Zm10.045-4.75v8.525h9.5V15.91h-9.5Zm4.75 3.775h-6.49v9.5h6.49v-9.5Zm-6.176.01-8.305-.55-.628 9.48 8.305.55.628-9.48Zm-13.37 4.19V31.2h9.5v-7.315h-9.5Zm4.75 12.065h16.446v-9.5H91.076v9.5Zm13.463-1.053 6.545 5.28 5.965-7.394-6.545-5.28-5.965 7.394Zm6.035-1.637-3.245 3.52 6.985 6.44 3.245-3.52-6.985-6.44Zm.248 1.99H81.176v9.5h29.645v-9.5Zm9.321 4.75h-4.75v4.75h4.75V40Zm0-30.085h4.75v-.47l-.092-.462-4.658.932Zm-1.1-5.5-4.506-1.502-.399 1.197.247 1.237 4.658-.932Zm1.1-3.3v-4.75h-3.424l-1.082 3.248 4.506 1.502Zm8.855 0 3.813-2.832-1.424-1.918h-2.389v4.75Zm11.11 14.96 4.112-2.378-.136-.236-.163-.218-3.813 2.832Zm2.64 4.565-4.112 2.378 1.372 2.372h2.74v-4.75Zm.55 0v4.75h4.75v-4.75h-4.75Zm0-19.525v-4.75h-4.75v4.75h4.75Zm10.395 0h4.75v-4.75h-4.75v4.75Zm0 3.3 4.726.473.024-.236v-.237h-4.75Zm-.55 5.5-4.727-.473-.023.236v.237h4.75Zm0 30.085v4.75h4.75V40h-4.75Zm-8.635 0-3.868 2.758 1.421 1.992h2.447V40Zm-13.805-19.36 3.867-2.758-1.42-1.992h-2.447v4.75Zm-.55 0v-4.75h-4.75v4.75h4.75Zm0 3.3h-4.75v.081l.003.082 4.747-.163Zm.55 16.06v4.75h4.915l-.168-4.913-4.747.163Zm-5.81 0V9.915h-9.5V40h9.5ZM124.8 8.983l-1.1-5.5-9.316 1.864 1.1 5.5 9.316-1.864Zm-1.252-3.066 1.1-3.3-9.012-3.004-1.1 3.3 9.012 3.004Zm-3.406-.052h8.855v-9.5h-8.855v9.5Zm5.041-1.918 11.11 14.96 7.627-5.664-11.11-14.96-7.627 5.664Zm10.812 14.506 2.64 4.565 8.224-4.756-2.64-4.565-8.224 4.756Zm6.752 6.937h.55v-9.5h-.55v9.5Zm5.3-4.75V1.115h-9.5V20.64h9.5Zm-4.75-14.775h10.395v-9.5h-10.395v9.5Zm5.645-4.75v3.3h9.5v-3.3h-9.5Zm.023 2.827-.55 5.5 9.453.946.55-5.5-9.453-.946Zm-.573 5.973V40h9.5V9.915h-9.5Zm4.75 25.335h-8.635v9.5h8.635v-9.5Zm-4.768 1.992-13.805-19.36-7.735 5.516 13.805 19.36 7.735-5.516ZM130.702 15.89h-.55v9.5h.55v-9.5Zm-5.3 4.75v3.3h9.5v-3.3h-9.5Zm.003 3.463.55 16.06 9.494-.326-.55-16.06-9.494.326Zm5.297 11.147h-10.56v9.5h10.56v-9.5Zm39.49 4.75h-4.75v4.75h4.75V40Zm0-30.14h4.75V4.867l-4.987.249.237 4.744Zm-11 .55h-4.75v4.993l4.987-.249-.237-4.744Zm0-9.35v-4.75h-4.75v4.75h4.75Zm32.175 0h4.75v-4.75h-4.75v4.75Zm0 9.35-.232 4.744 4.982.243V10.41h-4.75Zm-11.275-.55.231-4.744-4.981-.243V9.86h4.75Zm0 21.34h-4.75v.26l.028.26 4.722-.52Zm.605 5.5 4.672.857.125-.685-.076-.691-4.721.519Zm-.605 3.3v4.75h3.958l.714-3.893-4.672-.857Zm-5.15 0V9.86h-9.5V40h9.5Zm-4.987-34.884-11 .55.474 9.488 11-.55-.474-9.488Zm-6.013 5.294V1.06h-9.5v9.35h9.5Zm-4.75-4.6h32.175v-9.5h-32.175v9.5Zm27.425-4.75v9.35h9.5V1.06h-9.5Zm4.981 4.606-11.275-.55-.463 9.488 11.275.55.463-9.488ZM175.342 9.86V31.2h9.5V9.86h-9.5Zm.028 21.86.605 5.5 9.443-1.04-.605-5.5-9.443 1.04Zm.655 4.123-.605 3.3 9.344 1.714.605-3.3-9.344-1.714Zm4.067-.593h-9.9v9.5h9.9v-9.5ZM204.897 40l-1.041 4.635.046.01.045.01.95-4.655Zm-4.675-1.43 1.827-4.385-1.827 4.385Zm-2.915-1.54h-4.75v2.347l1.865 1.426 2.885-3.773Zm0-9.845 2.329-4.14-7.079-3.982v8.122h4.75Zm6.655 2.805-1.484 4.512.028.01.028.008 1.428-4.53Zm11.825.77 2.222 4.198.043-.023.042-.023-2.307-4.152Zm-1.21-4.235-1.991 4.313.066.03.067.029 1.858-4.372Zm-6.82-2.42-1.44 4.526.025.009.026.007 1.389-4.542Zm-6.215-2.53-2.337 4.135.053.03.053.029 2.231-4.194Zm-3.905-3.52-4.045 2.49.037.06.04.06 3.968-2.61Zm.44-11.605-4.001-2.56 4.001 2.56Zm5.5-4.345 1.863 4.37-1.863-4.37Zm13.31-1.43-.395 4.734.069.005.07.004.256-4.743Zm3.245.33 2.812-3.828-.884-.65-1.078-.195-.85 4.673Zm6.215 4.565 4.524 1.446 1.04-3.253-2.752-2.021-2.812 3.828Zm-2.145 6.71-1.256 4.58 4.393 1.206 1.387-4.34-4.524-1.446Zm-13.035-3.575 1.256-4.58-.617-.17h-.639v4.75Zm-3.355.935-3.076-3.62-.046.04-.045.04 3.167 3.54Zm.77 4.785 2.175-4.223-2.175 4.223Zm5.225 1.87 1.262-4.58h-.006l-1.256 4.58Zm8.36 3.3 2.477-4.053-2.477 4.053Zm4.18 4.125-4.208 2.204.011.021.011.02 4.186-2.245Zm-3.025 13.64 2.858 3.794.015-.012.016-.012-2.889-3.77Zm-12.705-1.56c-1.729 0-3.315-.157-4.77-.454l-1.9 9.308c2.139.436 4.365.646 6.67.646v-9.5Zm-4.68-.435c-1.6-.359-2.883-.76-3.888-1.18l-3.654 8.77c1.635.68 3.468 1.232 5.461 1.68l2.081-9.27Zm-3.888-1.18c-1.198-.499-1.722-.825-1.857-.928l-5.77 7.546c1.112.85 2.53 1.55 3.973 2.152l3.654-8.77Zm.008 2.845v-9.845h-9.5v9.845h9.5Zm-7.079-5.705c2.111 1.187 4.636 2.236 7.5 3.177l2.967-9.024c-2.489-.819-4.4-1.64-5.809-2.433l-4.658 8.28Zm7.556 3.195c3.207 1.01 6.667 1.485 10.338 1.485v-9.5c-2.856 0-5.336-.37-7.483-1.046l-2.855 9.061Zm10.338 1.485c1.53 0 3.461-.16 5.137-1.047l-4.445-8.396c.147-.078.25-.112.282-.122.034-.01.021-.004-.051.008a5.822 5.822 0 0 1-.923.057v9.5Zm5.222-1.093c2.445-1.358 3.433-3.76 3.433-6.022h-9.5c0-.146.028-.573.304-1.095a2.942 2.942 0 0 1 1.149-1.187l4.614 8.304Zm3.433-6.022c0-3.949-3.162-5.916-5.092-6.737l-3.716 8.744c.389.165.282.193.03-.078a2.62 2.62 0 0 1-.487-.77 2.992 2.992 0 0 1-.235-1.159h9.5Zm-4.96-6.678c-1.737-.802-4.267-1.685-7.421-2.65l-2.778 9.085c3.079.942 5.096 1.673 6.218 2.19l3.981-8.625Zm-7.37-2.633c-2.223-.708-4.016-1.449-5.424-2.198l-4.462 8.388c2.039 1.084 4.389 2.03 7.006 2.862l2.88-9.052Zm-5.318-2.14c-1.136-.641-1.834-1.327-2.274-1.995l-7.936 5.222c1.393 2.118 3.298 3.78 5.536 5.044l4.674-8.27Zm-2.197-1.873c-.297-.483-.615-1.368-.615-2.956h-9.5c0 2.812.562 5.557 2.025 7.934l8.09-4.979Zm-.615-2.956c0-1.408.349-2.566 1.011-3.6l-8.002-5.12c-1.685 2.632-2.509 5.582-2.509 8.72h9.5Zm1.011-3.6c.545-.851 1.53-1.755 3.362-2.536l-3.726-8.738c-3.155 1.345-5.836 3.338-7.638 6.153l8.002 5.122Zm3.362-2.536c1.707-.728 4.204-1.214 7.707-1.214v-9.5c-4.271 0-8.154.577-11.433 1.976l3.726 8.738Zm7.707-1.214c1.026 0 2.14.048 3.345.149l.789-9.468a49.865 49.865 0 0 0-4.134-.181v9.5Zm3.484.158c1.268.069 2.126.165 2.651.26l1.7-9.346c-1.088-.198-2.394-.322-3.839-.4l-.512 9.486Zm.689-.585 6.215 4.565 5.624-7.656-6.215-4.565-5.624 7.656Zm4.502-.71-2.145 6.71 9.049 2.893 2.145-6.71-9.049-2.892Zm3.636 3.576-13.035-3.575-2.512 9.162 13.035 3.575 2.512-9.162Zm-14.291-3.744c-2.029 0-4.471.4-6.431 2.066l6.152 7.238c-.254.216-.443.264-.412.255.016-.004.078-.02.196-.034.118-.014.281-.025.495-.025v-9.5ZM204.645 6.1c-1.633 1.461-2.628 3.471-2.628 5.795h9.5c0 .206-.045.485-.179.773a1.605 1.605 0 0 1-.359.512l-6.334-7.08Zm-2.628 5.795c0 3.362 2.121 5.584 4.39 6.753l4.35-8.446c-.137-.07.072.005.323.354.292.407.437.903.437 1.339h-9.5Zm4.39 6.753c1.64.845 3.747 1.57 6.144 2.228l2.512-9.162c-2.15-.59-3.526-1.11-4.306-1.512l-4.35 8.446Zm6.138 2.226c3.391.935 5.701 1.892 7.145 2.774l4.954-8.106c-2.517-1.538-5.78-2.78-9.575-3.826l-2.524 9.158Zm7.145 2.774c1.484.907 2.154 1.712 2.449 2.276l8.416-4.408c-1.318-2.516-3.436-4.461-5.911-5.974l-4.954 8.106Zm2.471 2.318c.395.735.646 1.652.646 2.869h9.5c0-2.597-.555-5.089-1.775-7.36l-8.371 4.49Zm.646 2.869c0 2.024-.709 3.479-2.374 4.755l5.778 7.54c3.982-3.05 6.096-7.279 6.096-12.295h-9.5Zm-2.343 4.73c-1.637 1.234-4.66 2.235-9.847 2.235v9.5c6.107 0 11.554-1.126 15.563-4.146l-5.716-7.588Z" fill="#000" mask="url(#b)"/></g><defs><filter id="a" x=".532" y=".51" width="235.025" height="48.04" filterUnits="userSpaceOnUse" color-interpolation-filters="sRGB"><feFlood flood-opacity="0" result="BackgroundImageFix"/><feColorMatrix in="SourceAlpha" values="0 0 0 0 0 0 0 0 0 0 0 0 0 0 0 0 0 0 127 0" result="hardAlpha"/><feOffset dx="8" dy="8"/><feComposite in2="hardAlpha" operator="out"/><feColorMatrix values="0 0 0 0 0 0 0 0 0 0 0 0 0 0 0 0 0 0 1 0"/><feBlend in2="BackgroundImageFix" result="effect1_dropShadow_270_756"/><feBlend in="SourceGraphic" in2="effect1_dropShadow_270_756" result="shape"/></filter></defs></svg>