<svg width="160" height="54" fill="none" xmlns="http://www.w3.org/2000/svg"><g filter="url(#a)"><rect width="152.221" height="43.91" rx="10" fill="#FAFF0A"/></g><path d="m25 32-.5-1.5.5-2.5V14.3h12.375l1.25.75-1.65 3.5-2.25-.25H29.5v2.75h6.725v3.875h-2.95l-3.775-.25V28h7.475l2.975 2.4-1.475 1.6H25Zm21.462 0-4.5-13.725-.75-2.475v-1.5h4.75l3.525 13.15h.5l3.475-13.15h4.7v1.5l-.75 2.475L52.937 32h-6.475Zm14.694 0-.5-1.5.5-2.5V14.3h12.375l1.25.75-1.65 3.5-2.25-.25h-5.225v2.75h6.725v3.875h-2.95l-3.775-.25V28h7.475l2.975 2.4-1.475 1.6H61.156Zm17.712 0V18.325l-.5-2.5.5-1.5h4.025l5.05 6.8 1.2 2.075h.25v-8.875h4.725v1.5l-.25 2.5V32h-3.925l-6.275-8.8h-.25v1.5l.25 7.3h-4.8Zm22.75 0V18.3l-5 .25V14.3h14.625v4.25l-5.125-.25V28l.275 2.5-.275 1.5h-4.5Zm18.375.25c-.917 0-1.783-.083-2.6-.25-.817-.183-1.525-.4-2.125-.65-.6-.25-1.042-.483-1.325-.7v-4.475c.8.45 1.808.875 3.025 1.275 1.217.383 2.567.575 4.05.575.6 0 1.042-.075 1.325-.225.3-.167.45-.45.45-.85 0-.433-.333-.792-1-1.075-.65-.3-1.683-.667-3.1-1.1-1.1-.35-2.042-.733-2.825-1.15-.767-.433-1.358-.967-1.775-1.6-.4-.65-.6-1.475-.6-2.475 0-1.033.267-1.967.8-2.8.533-.833 1.367-1.492 2.5-1.975 1.133-.483 2.583-.725 4.35-.725.533 0 1.1.025 1.7.075.617.033 1.108.083 1.475.15l2.825 2.075-.975 3.05-5.925-1.625c-.683 0-1.192.142-1.525.425-.317.283-.475.625-.475 1.025 0 .483.275.867.825 1.15.55.283 1.342.567 2.375.85 1.633.45 2.9.95 3.8 1.5.9.55 1.533 1.175 1.9 1.875.367.683.55 1.458.55 2.325 0 1.6-.642 2.892-1.925 3.875-1.283.967-3.208 1.45-5.775 1.45Z" fill="#000"/><rect x="7.252" y="5.423" width="137.53" height="33.5" rx="5.25" stroke="#000" stroke-width="1.5" stroke-dasharray="6 6"/><defs><filter id="a" x="0" y="0" width="159.221" height="53.91" filterUnits="userSpaceOnUse" color-interpolation-filters="sRGB"><feFlood flood-opacity="0" result="BackgroundImageFix"/><feColorMatrix in="SourceAlpha" values="0 0 0 0 0 0 0 0 0 0 0 0 0 0 0 0 0 0 127 0" result="hardAlpha"/><feOffset dx="7" dy="10"/><feComposite in2="hardAlpha" operator="out"/><feColorMatrix values="0 0 0 0 0 0 0 0 0 0 0 0 0 0 0 0 0 0 1 0"/><feBlend in2="BackgroundImageFix" result="effect1_dropShadow_249_1669"/><feBlend in="SourceGraphic" in2="effect1_dropShadow_249_1669" result="shape"/></filter></defs></svg>