<svg width="160" height="54" fill="none" xmlns="http://www.w3.org/2000/svg"><g filter="url(#a)"><rect width="152.221" height="43.91" rx="10" fill="#FAFF0A"/></g><path d="M24.475 31.25c-1.283 0-2.5-.125-3.65-.375a8 8 0 0 1-3.025-1.4c-.867-.667-1.55-1.592-2.05-2.775-.5-1.183-.75-2.7-.75-4.55 0-1.783.267-3.258.8-4.425.533-1.183 1.242-2.117 2.125-2.8a8.383 8.383 0 0 1 2.975-1.45c1.1-.283 2.208-.425 3.325-.425.817 0 1.525.042 2.125.125.6.083 1.175.192 1.725.325l3.4 1.975-1.75 3.875L24.2 17.4c-.8 0-1.542.158-2.225.475-.667.317-1.208.825-1.625 1.525-.4.683-.6 1.608-.6 2.775 0 1.883.417 3.208 1.25 3.975.85.75 2.008 1.125 3.475 1.125.75 0 1.333-.033 1.75-.1.433-.083.767-.15 1-.2v-1.9H24.05v-3.7H32l.275 1.5-.55 2.075v5.25c-.183.067-.6.183-1.25.35-.633.167-1.467.325-2.5.475-1.017.15-2.183.225-3.5.225Zm9.562-.25 1.2-4.225V23.6l1.85-.75 3.25-9.525h6.475l4.025 11.2 1.925 3.55V31h-4.425l-1.25-4h-7.275l-1.075 4h-4.7Zm7.425-7.85h4.25l-1.9-5.725h-.525l-1.825 5.725ZM55.501 31l-.5-1.5.5-2.5V13.3h4.5v10.275L59.751 27h.5l4.475-.25 1.775-.25 2.2 2.9-1.225 1.6H55.501Zm15.954 0-.5-1.5.5-2.5V13.3h4.5v10.275L75.705 27h.5l4.475-.25 1.775-.25 2.2 2.9L83.43 31H71.455Zm15.954 0-.5-1.5.5-2.5V13.3h12.375l1.25.75-1.65 3.5-2.25-.25H91.91v2.75h6.725v3.875h-2.95l-3.775-.25V27h7.475l2.975 2.4-1.475 1.6H87.409Zm17.712 0V17.325l-.5-2.525.5-1.5h8c1.217 0 2.308.192 3.275.575.983.367 1.758 1 2.325 1.9.583.883.875 2.108.875 3.675 0 1.417-.258 2.567-.775 3.45a4.872 4.872 0 0 1-2.15 1.95l.25.275 2.475 3.1 1.425 1.275V31h-5.625l-3.5-5.325h-2.075v1.3l.25 2.5-.25 1.525h-4.5Zm4.5-9.25h2.45c.867 0 1.558-.158 2.075-.475.517-.333.775-.942.775-1.825 0-.617-.125-1.075-.375-1.375-.25-.317-.6-.525-1.05-.625-.433-.1-.942-.15-1.525-.15h-2.6l.25 4.45ZM127.264 31v-7.5l-6.2-8.7v-1.5h5.25l3 5.65h.5l2.975-5.65h5.25v1.5l-6.375 8.85.15 2.525V31h-4.55Z" fill="#000"/><rect x="5.75" y="4.75" width="140.5" height="33.5" rx="5.25" stroke="#000" stroke-width="1.5" stroke-dasharray="6 6"/><defs><filter id="a" x="0" y="0" width="159.221" height="53.91" filterUnits="userSpaceOnUse" color-interpolation-filters="sRGB"><feFlood flood-opacity="0" result="BackgroundImageFix"/><feColorMatrix in="SourceAlpha" values="0 0 0 0 0 0 0 0 0 0 0 0 0 0 0 0 0 0 127 0" result="hardAlpha"/><feOffset dx="7" dy="10"/><feComposite in2="hardAlpha" operator="out"/><feColorMatrix values="0 0 0 0 0 0 0 0 0 0 0 0 0 0 0 0 0 0 1 0"/><feBlend in2="BackgroundImageFix" result="effect1_dropShadow_249_1657"/><feBlend in="SourceGraphic" in2="effect1_dropShadow_249_1657" result="shape"/></filter></defs></svg>