<svg width="160" height="54" fill="none" xmlns="http://www.w3.org/2000/svg"><g filter="url(#a)"><rect width="152.221" height="43.91" rx="10" fill="#FAFF0A"/></g><path d="M37.74 32.19V18.515l-.25-2.5.25-1.525h4.5v6.775h6.225V14.49h4.5v9.4l.25 1.725v6.575h-4.75v-6.6H42.24v1.5l.25 5.1h-4.75Zm26.95.25a13.03 13.03 0 0 1-3.124-.375 7.198 7.198 0 0 1-2.725-1.4c-.8-.666-1.442-1.591-1.925-2.775-.467-1.183-.7-2.7-.7-4.55 0-1.85.233-3.366.7-4.55.483-1.183 1.125-2.108 1.925-2.775a6.917 6.917 0 0 1 2.725-1.375 12.29 12.29 0 0 1 3.125-.4c1.066 0 2.1.134 3.1.4a6.966 6.966 0 0 1 2.725 1.4c.816.667 1.458 1.592 1.925 2.775.483 1.184.725 2.692.725 4.525 0 1.834-.242 3.342-.725 4.525-.467 1.184-1.109 2.109-1.925 2.775a6.963 6.963 0 0 1-2.725 1.4c-1 .267-2.034.4-3.1.4Zm0-4.25c1.234 0 2.167-.366 2.8-1.1.634-.733.95-1.983.95-3.75 0-1.766-.316-3.016-.95-3.75-.633-.733-1.566-1.1-2.8-1.1-1.216 0-2.141.375-2.774 1.125-.634.75-.95 1.992-.95 3.725 0 1.734.316 2.975.95 3.725.633.75 1.558 1.125 2.775 1.125Zm11.97 4V18.515l-.5-2.5.526-1.5h4.775l4.9 9.5h.5l4.05-9.5h4.975l.25 1.5-.25 2.4V32.19H91.36l.075-2.125V23.09h-.275l-1 2.4-2.25 4.2h-3l-3.45-6.6h-.25v2.025l.25 7.075h-4.8Zm23.475 0-.5-1.5.5-2.5v-13.7h12.375l1.25.75-1.65 3.5-2.25-.25h-5.225v2.75h6.725v3.875h-2.95l-3.775-.25v3.325h7.475l2.975 2.4-1.475 1.6h-13.475Z" fill="#000"/><rect x="7.252" y="5.423" width="137.53" height="33.5" rx="5.25" stroke="#000" stroke-width="1.5" stroke-dasharray="6 6"/><defs><filter id="a" x="0" y="0" width="159.221" height="53.91" filterUnits="userSpaceOnUse" color-interpolation-filters="sRGB"><feFlood flood-opacity="0" result="BackgroundImageFix"/><feColorMatrix in="SourceAlpha" values="0 0 0 0 0 0 0 0 0 0 0 0 0 0 0 0 0 0 127 0" result="hardAlpha"/><feOffset dx="7" dy="10"/><feComposite in2="hardAlpha" operator="out"/><feColorMatrix values="0 0 0 0 0 0 0 0 0 0 0 0 0 0 0 0 0 0 1 0"/><feBlend in2="BackgroundImageFix" result="effect1_dropShadow_249_1649"/><feBlend in="SourceGraphic" in2="effect1_dropShadow_249_1649" result="shape"/></filter></defs></svg>